HIERARCHY
ROOT root
{
  OFFSET 70.785 87.0548 -53.2926
  CHANNELS 6 Xposition Yposition Zposition Zrotation Xrotation Yrotation
  JOINT lhipjoint
  {
    OFFSET 0 0 0
    CHANNELS 3 Zrotation Xrotation Yrotation
    JOINT lfemur
    {
      OFFSET 11.4745 -9.6688 -0.306662
      CHANNELS 3 Zrotation Xrotation Yrotation
      JOINT ltibia
      {
        OFFSET 0 -38.9476 0
        CHANNELS 3 Zrotation Xrotation Yrotation
        JOINT lfoot
        {
          OFFSET 0 -40.9204 0
          CHANNELS 3 Zrotation Xrotation Yrotation
          JOINT ltoes
          {
            OFFSET -1.2422 -17.1163 1.62186
            CHANNELS 3 Zrotation Xrotation Yrotation
            End Site
            {
              OFFSET -0.000383667 -1.60546 0.155658
            }
          }
        }
      }
    }
  }
  JOINT rhipjoint
  {
    OFFSET 0 0 0
    CHANNELS 3 Zrotation Xrotation Yrotation
    JOINT rfemur
    {
      OFFSET -11.2433 -9.6688 -0.306663
      CHANNELS 3 Zrotation Xrotation Yrotation
      JOINT rtibia
      {
        OFFSET 0 -38.7675 0
        CHANNELS 3 Zrotation Xrotation Yrotation
        JOINT rfoot
        {
          OFFSET 0 -41.5282 0
          CHANNELS 3 Zrotation Xrotation Yrotation
          JOINT rtoes
          {
            OFFSET 1.88681 -17.3568 1.41374
            CHANNELS 3 Zrotation Xrotation Yrotation
            End Site
            {
              OFFSET -4.2794e-005 -2.4878 -0.0189434
            }
          }
        }
      }
    }
  }
  JOINT lowerback
  {
    OFFSET 0 0 0
    CHANNELS 3 Zrotation Xrotation Yrotation
    JOINT upperback
    {
      OFFSET 0.294169 15.3138 2.56325
      CHANNELS 3 Zrotation Xrotation Yrotation
      JOINT thorax
      {
        OFFSET 0.014644 15.0218 2.10611
        CHANNELS 3 Zrotation Xrotation Yrotation
        JOINT lshoulderjoint
        {
          OFFSET -0.126523 16.0704 -0.102854
          CHANNELS 3 Zrotation Xrotation Yrotation
          JOINT lhumerus
          {
            OFFSET 14.7934 0 0
            CHANNELS 3 Zrotation Xrotation Yrotation
            JOINT lradius
            {
              OFFSET 0 -30.4825 0
              CHANNELS 3 Zrotation Xrotation Yrotation
              JOINT lhand
              {
                OFFSET 0 -21.2177 0
                CHANNELS 3 Zrotation Xrotation Yrotation
                End Site
                {
                  OFFSET 0 -9.18777 1.24932
                }
              }
            }
          }
        }
        JOINT rshoulderjoint
        {
          OFFSET -0.126523 16.0704 -0.102854
          CHANNELS 3 Zrotation Xrotation Yrotation
          JOINT rhumerus
          {
            OFFSET -14.4194 0 0
            CHANNELS 3 Zrotation Xrotation Yrotation
            JOINT rradius
            {
              OFFSET 0 -31.9519 0
              CHANNELS 3 Zrotation Xrotation Yrotation
              JOINT rhand
              {
                OFFSET 0 -23.442 0
                CHANNELS 3 Zrotation Xrotation Yrotation
                End Site
                {
                  OFFSET 0 -7.01689 1.24932
                }
              }
            }
          }
        }
        JOINT lowerneck
        {
          OFFSET -0.126523 16.0704 -0.102854
          CHANNELS 3 Zrotation Xrotation Yrotation
          JOINT upperneck
          {
            OFFSET 0.113407 8.41235 -3.1822
            CHANNELS 3 Zrotation Xrotation Yrotation
            JOINT head
            {
              OFFSET -0.254241 9.44511 0.746346
              CHANNELS 3 Zrotation Xrotation Yrotation
              End Site
              {
                OFFSET -0.118537 9.46566 0.57791
              }
            }
          }
        }
      }
    }
  }
}
MOTION
Frames:	12
Frame Time:	0.0333333
70.785 87.0548 -53.2926 6.64975 16.1687 -46.0711 3.18055e-015 -1.59028e-015 -0 20.7022 -27.2834 22.4586 9.54166e-015 62.1578 -0 165.824 -74.0204 165.445 -0.231128 0.338602 -0.0227616 3.18055e-015 -1.59028e-015 -0 -3.7905 -16.9374 -17.5183 -6.16191e-015 35.7043 7.83349e-015 -155.923 -68.7982 -154.519 0.0461783 0.18676 0.00465633 4.71516 -11.212 2.1023 3.6051 -2.78431 1.98676 -0.774888 8.82419 1.11761 11.1629 -0.0479605 -0.229555 13.9084 -27.9005 162.455 -180 51.164 180 -33.4447 26.3819 105.186 -10.4131 0.0390236 -0.231239 -2.71944 -28.9571 -161.701 180 47.7148 -180 32.2815 -8.40414 -87.833 2.86057 22.0336 -0.52427 -1.89262 -4.26508 -0.172559 -1.00066 -4.75388 -0.0272412 
70.7319 86.8474 -53.2378 7.08458 16.0394 -49.263 -3.18055e-015 0 -3.18055e-015 19.9216 -30.1937 20.7687 -1.07677e-014 67.2563 8.2268e-015 136.352 -75.0477 135.65 -0.170693 0.0783801 0.0328767 -3.18055e-015 0 -3.18055e-015 -4.12563 -17.687 -17.0018 1.57711e-016 35.9499 7.85777e-015 -162.04 -69.4324 -161.017 -0.0453106 0.0746478 0.0203802 5.40927 -10.9269 1.77298 4.96851 -2.63906 1.37579 -0.414475 8.63943 0.817327 10.9217 -0.260898 -1.36938 2.59186 -13.5754 164.391 -180 49.1461 -180 -34.2871 25.0152 107.645 -9.49613 0.231114 -1.37478 -2.64684 -28.1491 -161.226 180 48.9949 -180 25.1621 -9.33524 -83.7905 4.32881 21.4387 0.128668 -5.10416 -1.85436 0.761448 -2.33616 -3.87775 0.613382 
70.6357 91.3356 -50.6967 9.49899 12.4416 -54.9713 -1.59028e-015 3.97569e-015 9.54166e-015 20.2675 -31.1327 26.1004 2.96188e-014 68.9931 -2.6617e-014 -119.026 -87.281 -119.05 0.273468 -0.447101 -0.014885 -1.59028e-015 3.97569e-015 9.54166e-015 -7.7661 -15.5836 -13.7808 3.41098e-015 29.789 -3.66482e-015 -142.633 -79.2557 -142.387 -0.247822 0.0792686 -0.0620025 4.42312 -10.346 2.56858 3.55663 -2.53919 2.69452 -0.413265 8.23598 1.43635 10.0815 -0.164591 -0.932295 6.95624 -0.44099 161.18 180 45.3051 -180 -29.1734 25.8534 104.858 -10.6727 0.164677 -0.932289 1.57468 -18.5315 -163.848 180 46.9185 -180 13.162 -13.3165 -84.4823 4.96731 24.4376 0.380352 -6.61875 1.49631 1.25551 -2.96044 -3.22615 0.925867 
70.9119 94.8133 -47.7878 11.7086 9.26337 -57.9956 3.18055e-015 -1.59028e-015 3.18055e-015 19.8879 -31.6967 28.3179 1.44861e-014 57.2483 -5.87904e-015 -128.721 -86.298 -128.693 -0.0774618 -0.119269 -0.0772325 3.18055e-015 -1.59028e-015 3.18055e-015 -11.2673 -16.0464 -16.7206 -1.11319e-014 29.8027 -0 -86.1486 -74.8033 -86.9658 0.452691 -0.131363 0.0197654 2.94778 -10.4755 2.9787 2.18018 -2.71209 3.48812 0.0228637 8.16636 1.7747 11.7726 0.2928 1.37365 12.793 1.18961 163.392 -180 41.5972 -180 -33.8841 24.596 110.239 -14.2372 -0.364767 1.35596 5.54465 -18.1401 -167.327 180 43.1115 -180 13.5833 -15.9841 -89.079 3.23709 29.3156 1.15965 -7.27415 2.34321 1.73687 -3.03744 -3.57058 1.23123 
71.2346 94.226 -45.471 11.3276 7.72333 -58.6492 -1.59028e-015 1.59028e-015 3.18055e-015 22.5758 -30.8975 25.884 3.18055e-015 37.0357 -0 164.448 -86.8208 164.435 -0.267702 0.0194711 0.0312354 -1.59028e-015 1.59028e-015 3.18055e-015 -10.1405 -12.8725 -18.0904 -1.59028e-015 29.5511 -0 -91.1122 -73.2486 -91.2398 -0.133452 -0.203598 0.040122 2.45722 -9.30901 4.01727 1.20724 -3.40979 5.05102 -0.181087 6.47749 2.52016 11.929 0.63403 3.01915 19.5573 -10.7986 171.385 -180 41.8201 180 -38.2645 24.4326 110.907 -17.2479 -0.914043 2.9467 7.4114 -28.8605 -169.091 -180 45.9557 180 25.2541 -9.21125 -86.1085 3.9539 34.7294 0.238426 -5.23488 1.90202 1.01415 -2.43263 -4.36061 0.772529 
71.6992 90.4565 -42.3761 10.382 8.37482 -58.6985 -0 -1.59028e-015 -0 27.7872 -31.3968 23.7395 1.10418e-015 19.1452 -3.36677e-015 -124.289 -82.3681 -124.045 0.226841 0.224512 0.119769 -0 -1.59028e-015 -0 -10.3106 -8.30231 -18.8902 -4.77083e-015 25.8339 -0 -115.406 -72.1706 -114.556 -0.0641854 0.0919546 0.00336655 5.38609 -10.3107 6.23483 0.699143 -3.83446 7.71783 -2.60524 7.7789 3.96911 9.66655 0.25334 1.46611 23.5217 -27.5687 178.928 -180 49.7883 -180 -32.4064 23.2878 106.083 -12.9073 -0.365225 1.44165 1.99756 -47.9041 -170.699 180 59.3306 -180 24.6365 -4.21785 -86.9179 5.47488 34.0497 -1.97479 -2.19028 3.19162 -0.965766 -1.33572 -3.90667 -0.421077 
72.8362 87.4145 -37.053 10.483 7.03793 -63.7526 1.59028e-015 3.97569e-016 -0 28.6222 -30.2736 24.8436 8.16275e-016 14.394 -3.28363e-015 -122.634 -83.5523 -122.368 -0.103932 0.438267 0.0551082 1.59028e-015 3.97569e-016 -0 -16.576 -8.59406 -19.7834 2.32312e-015 28.3323 1.8067e-015 -135.614 -74.8925 -134.942 0.00280106 0.0659516 0.0172917 7.10112 -11.1875 8.15798 0.590354 -0.335476 9.89153 -2.89959 12.3801 5.26824 8.54323 0.108238 0.739346 8.43187 -33.8976 177.546 -180 56.6823 180 -30.8692 20.5889 103.817 -7.74136 -0.0989047 0.740658 -0.191532 -64.6111 -166.393 -180 68.6109 180 22.6628 -1.25648 -81.5196 2.78438 20.902 -1.33216 -1.6631 9.04728 -1.40217 -0.900732 -0.541852 -0.707635 
74.0918 86.9755 -29.6132 12.7916 4.82229 -71.6394 -1.59028e-015 1.98785e-016 3.18055e-015 26.8389 -31.048 30.8349 3.64315e-015 23.1359 6.91744e-015 -76.6297 -84.3642 -76.8336 0.0523018 -0.253394 0.0129534 -1.59028e-015 1.98785e-016 3.18055e-015 -23.2551 -11.6646 -14.2936 -7.73255e-016 26.4388 8.88016e-015 -114.386 -77.2154 -114.494 -0.272923 0.117658 -0.152293 5.08434 -10.4919 7.5309 0.0717247 0.859869 9.37915 -1.67697 12.282 4.88923 8.39232 -0.028848 -0.20045 2.16523 -24.8447 170.413 -180 48.9774 180 -31.9764 18.2084 105.426 -6.96456 0.023213 -0.201187 17.5787 -59.0713 -150.421 180 61.8398 -180 19.7881 -5.71143 -85.3798 4.19832 17.8523 -0.124508 -3.37484 8.3048 0.361806 -1.80396 -0.324018 0.233494 
75.4094 88.3059 -22.8019 15.1684 1.87508 -85.6682 3.7932e-033 2.73329e-016 -7.95139e-016 28.0932 -28.0024 46.8471 8.29726e-015 31.3309 -3.72352e-015 -106.726 -83.7089 -106.901 -0.0127346 -0.0532782 -0.0556764 3.7932e-033 2.73329e-016 -7.95139e-016 -27.5563 -20.5293 -19.8378 -2.18341e-016 26.6975 7.5652e-015 -84.6287 -79.1985 -85.3823 0.0541197 -0.167457 -0.0107202 3.01218 -10.7319 7.63023 -0.373872 2.3262 9.80824 0.35849 13.3505 4.85565 10.089 -0.0747104 -0.410321 16.0543 -33.2309 174.74 -180 38.9957 180 -31.7169 18.8158 104.834 -7.49642 0.0570997 -0.413149 24.1211 -53.7773 -141.668 180 56.7131 -180 20.1707 -7.33541 -85.7018 1.36131 19.4822 1.7623 -6.42552 4.73433 2.13881 -2.54172 -1.73831 1.1855 
77.3433 89.5036 -18.1258 13.3634 -0.487762 -92.8571 1.98785e-016 -3.29237e-015 -0 24.3008 -26.0979 46.6562 9.4771e-015 33.4208 -1.1432e-014 176.635 -86.5355 176.642 -0.000942864 -0.0225604 0.0095776 1.98785e-016 -3.29237e-015 -0 -25.3973 -24.9294 -23.7149 -7.52961e-015 36.3076 1.97342e-015 -110.176 -71.4743 -109.884 0.156874 0.199727 0.0442554 -3.37561 -6.33218 5.93139 -0.00588233 2.15419 8.18901 5.14596 7.2306 3.75619 11.9242 -0.644404 -3.00748 43.1221 -44.1047 -158.485 -180 57.2805 180 -31.8985 25.2497 102.073 -10.1943 0.554998 -3.02505 22.3269 -52.4773 -137.327 -180 57.0345 -180 23.8464 -8.4516 -85.4865 -4.61432 25.1458 4.22947 -6.6915 3.02266 3.33969 -1.82889 -2.85136 1.79721 
79.2384 90.4473 -15.416 12.1806 -1.12743 -94.2038 5.86222e-033 -4.22417e-016 7.95139e-016 21.0037 -25.6186 44.8427 -3.18055e-015 31.8229 -0 144.173 -86.9901 144.253 -0.0259941 0.00114128 -0.011505 5.86222e-033 -4.22417e-016 7.95139e-016 -17.2328 -26.7739 -22.5906 -1.06658e-014 49.6415 9.82307e-015 -113.34 -62.5422 -111.597 0.208427 -0.0907092 -0.0769693 -8.92569 -3.82775 2.86216 -0.143175 1.78503 4.35252 9.37746 4.27209 1.74929 14.073 -0.240337 -0.927691 70.5862 -58.2398 -131.92 -2.08636e-014 58.626 2.44366e-014 -28.5979 5.36348 88.9206 -15.6108 0.227534 -0.930712 19.3795 -51.9289 -137.328 180 56.0221 -180 27.5049 -9.06743 -83.9263 -16.2298 27.0739 8.73515 -1.42085 0.568718 5.56631 1.00189 -4.16143 2.62337 
80.516 90.8997 -12.9747 12.6471 -1.45398 -95.4281 -1.98785e-016 -3.55328e-015 2.38542e-015 18.5088 -26.7514 41.8097 3.18055e-015 30.913 -0 119.688 -85.3092 119.878 -0.0240783 0.00526124 -0.0175992 -1.98785e-016 -3.55328e-015 2.38542e-015 -8.35479 -25.4013 -24.2743 -1.39201e-014 54.005 5.41173e-015 -124.836 -65.5606 -122.644 -0.103954 -0.03955 0.00529 -11.0257 -3.41458 1.51044 -0.333754 1.17264 2.58143 11.029 3.64795 0.874326 16.5424 -0.498439 -1.65745 68.9333 -60.5667 -126.274 -8.39416e-017 45.7462 4.55773e-015 -28.8437 14.1975 110.612 -15.5916 0.460617 -1.66835 20.8869 -50.8101 -131.24 -180 54.9776 180 33.0959 -8.90702 -77.3257 -19.6437 26.3403 10.0533 -1.0882 -1.29024 6.24136 1.42414 -4.77241 3.05396 
